<svg xmlns="http://www.w3.org/2000/svg" width="34" height="34" viewBox="0 0 34 34">
  <g id="그룹_3" data-name="그룹 3" transform="translate(-3106 -3089)">
    <rect id="사각형_67" data-name="사각형 67" width="34" height="34" transform="translate(3106 3089)" fill="none"/>
    <path id="패스_6" data-name="패스 6" d="M1.641,24.2S2.8,27.115,4.674,27.9a7.82,7.82,0,0,0,5.8,0c1.319-.659,2.9-1.714,1.583-3.692S7.28,17.214,7.1,13.126,11.136.6,19.311.071,31.839,2.049,31.048,4.159s-3.983-2.363-6.2-2.9C22.54.7,19.311,2.84,21.026,6.137s5.8,11.077,3.956,14.769-6.726,7.35-6.726,7.35,3.165-3.13,1.978-7.218a18.766,18.766,0,0,0-3.844-6.91s5.163,11.13-2.222,15.218S.059,25.917.059,25.917-.469,22.752,1.641,24.2" transform="translate(3107 3091)" fill="#659f30"/>
  </g>
</svg>
