<svg xmlns="http://www.w3.org/2000/svg" xmlns:xlink="http://www.w3.org/1999/xlink" width="109.869" height="30.563" viewBox="0 0 109.869 30.563">
  <defs>
    <clipPath id="clip-path">
      <rect id="사각형_16" data-name="사각형 16" width="109.869" height="30.563" transform="translate(0 0.001)" fill="none"/>
    </clipPath>
  </defs>
  <g id="logo" transform="translate(0 -0.001)">
    <g id="그룹_1" data-name="그룹 1" clip-path="url(#clip-path)">
      <path id="패스_1" data-name="패스 1" d="M1.641,24.2S2.8,27.115,4.674,27.9a7.82,7.82,0,0,0,5.8,0c1.319-.659,2.9-1.714,1.583-3.692S7.28,17.214,7.1,13.126,11.136.6,19.311.071,31.839,2.049,31.048,4.159s-3.983-2.363-6.2-2.9C22.54.7,19.311,2.84,21.026,6.137s5.8,11.077,3.956,14.769-6.726,7.35-6.726,7.35,3.165-3.13,1.978-7.218a18.766,18.766,0,0,0-3.844-6.91s5.163,11.13-2.222,15.218S.059,25.917.059,25.917-.469,22.752,1.641,24.2" fill="#659f30"/>
      <rect id="사각형_15" data-name="사각형 15" width="3.955" height="19.09" transform="translate(29.528 9.603)" fill="#1a1818"/>
      <path id="패스_2" data-name="패스 2" d="M41.591,9.6,46.9,22.536h.224L52.428,9.6h4.891v19.09h-3.85V16.182h-.158L48.328,28.6h-2.65l-4.97-12.446h-.159V28.693H36.713V9.6Z" fill="#1a1818"/>
      <path id="패스_3" data-name="패스 3" d="M60.549,9.6h7.462a7.855,7.855,0,0,1,3.685.811,5.551,5.551,0,0,1,2.353,2.274,6.868,6.868,0,0,1,.8,3.362,6.691,6.691,0,0,1-.817,3.355A5.646,5.646,0,0,1,71.65,21.66a8.038,8.038,0,0,1-3.731.81h-4.8V19.28H67.3a4.186,4.186,0,0,0,1.931-.4A2.627,2.627,0,0,0,70.4,17.75a3.592,3.592,0,0,0,.382-1.7,3.553,3.553,0,0,0-.382-1.694,2.565,2.565,0,0,0-1.173-1.107,4.358,4.358,0,0,0-1.938-.39H64.5V28.693H60.549Z" fill="#1a1818"/>
      <path id="패스_4" data-name="패스 4" d="M93.673,24.408A8.121,8.121,0,0,1,90.5,27.789a9.577,9.577,0,0,1-9.163,0A8.113,8.113,0,0,1,78.156,24.4,11.261,11.261,0,0,1,77,19.148a11.287,11.287,0,0,1,1.153-5.267A8.082,8.082,0,0,1,81.333,10.5a9.627,9.627,0,0,1,9.163,0,8.082,8.082,0,0,1,3.177,3.382,11.287,11.287,0,0,1,1.154,5.267,11.249,11.249,0,0,1-1.154,5.26M90.219,15.72a4.684,4.684,0,0,0-1.707-2.143,4.607,4.607,0,0,0-2.6-.731,4.554,4.554,0,0,0-2.578.731,4.78,4.78,0,0,0-1.714,2.143,8.6,8.6,0,0,0-.612,3.428,8.513,8.513,0,0,0,.612,3.408A4.821,4.821,0,0,0,83.337,24.7a4.59,4.59,0,0,0,2.578.751,4.643,4.643,0,0,0,2.6-.751,4.723,4.723,0,0,0,1.707-2.142,8.664,8.664,0,0,0,.6-3.408,8.747,8.747,0,0,0-.6-3.428" fill="#1a1818"/>
      <path id="패스_5" data-name="패스 5" d="M97.7,9.6h3.955v15.82h8.213v3.27H97.7Z" fill="#1a1818"/>
    </g>
  </g>
</svg>
